<svg xmlns="http://www.w3.org/2000/svg" xmlns:xlink="http://www.w3.org/1999/xlink" width="500" zoomAndPan="magnify" viewBox="0 0 375 374.999991" height="500" preserveAspectRatio="xMidYMid meet" version="1.0"><defs><g/><clipPath id="6be3beedf5"><path d="M 122.789062 225.574219 L 252.210938 225.574219 L 252.210938 243.480469 L 122.789062 243.480469 Z M 122.789062 225.574219 " clip-rule="nonzero"/></clipPath></defs><rect x="-37.5" width="450" fill="#ffffff" y="-37.499999" height="449.999989" fill-opacity="1"/><rect x="-37.5" width="450" fill="#202020" y="-37.499999" height="449.999989" fill-opacity="1"/><g clip-path="url(#6be3beedf5)"><path fill="#ab7339" d="M 122.789062 225.574219 L 252.179688 225.574219 L 252.179688 243.480469 L 122.789062 243.480469 Z M 122.789062 225.574219 " fill-opacity="1" fill-rule="nonzero"/></g><g fill="#ffffff" fill-opacity="1"><g transform="translate(164.703171, 209.87833)"><g><path d="M 1.96875 -15.109375 L 4.4375 -15.109375 L 4.4375 0 L 1.96875 0 Z M 6.515625 -15.109375 C 7.785156 -15.109375 8.90625 -14.90625 9.875 -14.5 C 10.84375 -14.101562 11.644531 -13.566406 12.28125 -12.890625 C 12.914062 -12.222656 13.390625 -11.460938 13.703125 -10.609375 C 14.015625 -9.753906 14.171875 -8.878906 14.171875 -7.984375 C 14.171875 -6.734375 14.035156 -5.664062 13.765625 -4.78125 C 13.503906 -3.90625 13.164062 -3.171875 12.75 -2.578125 C 12.34375 -1.984375 11.882812 -1.515625 11.375 -1.171875 C 10.863281 -0.828125 10.367188 -0.566406 9.890625 -0.390625 C 9.410156 -0.222656 8.972656 -0.113281 8.578125 -0.0625 C 8.179688 -0.0195312 7.882812 0 7.6875 0 L 5.265625 0 L 5.265625 -1.8125 L 6.875 -1.8125 C 8.539062 -1.8125 9.742188 -2.34375 10.484375 -3.40625 C 11.222656 -4.46875 11.59375 -6.015625 11.59375 -8.046875 C 11.59375 -8.671875 11.515625 -9.289062 11.359375 -9.90625 C 11.210938 -10.519531 10.921875 -11.078125 10.484375 -11.578125 C 10.054688 -12.078125 9.472656 -12.476562 8.734375 -12.78125 C 7.992188 -13.09375 7.035156 -13.25 5.859375 -13.25 L 5.265625 -13.25 L 5.265625 -15.109375 Z M 6.515625 -15.109375 "/></g></g></g><g fill="#ffffff" fill-opacity="1"><g transform="translate(182.594185, 209.87833)"><g><path d="M 13.390625 0 L 10.828125 0 L 9.40625 -1.765625 C 9.050781 -1.296875 8.613281 -0.898438 8.09375 -0.578125 C 7.582031 -0.265625 6.976562 -0.0507812 6.28125 0.0625 L 6.28125 -1.75 C 6.8125 -1.894531 7.226562 -2.117188 7.53125 -2.421875 C 7.832031 -2.734375 8.082031 -3.015625 8.28125 -3.265625 C 7.957031 -3.660156 7.625 -4.054688 7.28125 -4.453125 C 6.9375 -4.847656 6.601562 -5.226562 6.28125 -5.59375 L 6.28125 -9.0625 C 6.875 -9.363281 7.320312 -9.742188 7.625 -10.203125 C 7.925781 -10.671875 8.078125 -11.140625 8.078125 -11.609375 C 8.078125 -12.140625 7.898438 -12.546875 7.546875 -12.828125 C 7.203125 -13.109375 6.78125 -13.253906 6.28125 -13.265625 L 6.28125 -15.265625 C 6.757812 -15.265625 7.21875 -15.191406 7.65625 -15.046875 C 8.101562 -14.898438 8.5 -14.675781 8.84375 -14.375 C 9.195312 -14.070312 9.472656 -13.695312 9.671875 -13.25 C 9.878906 -12.800781 9.984375 -12.269531 9.984375 -11.65625 C 9.960938 -11.113281 9.867188 -10.628906 9.703125 -10.203125 C 9.535156 -9.773438 9.316406 -9.390625 9.046875 -9.046875 C 8.785156 -8.703125 8.492188 -8.398438 8.171875 -8.140625 C 7.847656 -7.890625 7.53125 -7.6875 7.21875 -7.53125 C 7.476562 -7.15625 7.8125 -6.75 8.21875 -6.3125 C 8.632812 -5.875 9.023438 -5.445312 9.390625 -5.03125 C 9.546875 -5.257812 9.691406 -5.5 9.828125 -5.75 C 9.960938 -6 10.113281 -6.304688 10.28125 -6.671875 L 11.875 -6.015625 C 11.726562 -5.578125 11.546875 -5.144531 11.328125 -4.71875 C 11.109375 -4.289062 10.875 -3.867188 10.625 -3.453125 Z M 2.5 -11.796875 C 2.5 -12.210938 2.566406 -12.601562 2.703125 -12.96875 C 2.835938 -13.34375 3.035156 -13.679688 3.296875 -13.984375 C 3.554688 -14.296875 3.867188 -14.554688 4.234375 -14.765625 C 4.597656 -14.972656 5 -15.117188 5.4375 -15.203125 L 5.4375 -13.109375 C 5.175781 -12.992188 4.953125 -12.820312 4.765625 -12.59375 C 4.578125 -12.363281 4.484375 -12.097656 4.484375 -11.796875 C 4.484375 -11.316406 4.582031 -10.898438 4.78125 -10.546875 C 4.988281 -10.191406 5.207031 -9.882812 5.4375 -9.625 L 5.4375 -6.515625 C 4.75 -6.066406 4.25 -5.582031 3.9375 -5.0625 C 3.632812 -4.539062 3.484375 -4.035156 3.484375 -3.546875 C 3.484375 -3.398438 3.515625 -3.21875 3.578125 -3 C 3.640625 -2.78125 3.742188 -2.570312 3.890625 -2.375 C 4.046875 -2.175781 4.242188 -2.003906 4.484375 -1.859375 C 4.722656 -1.710938 5.019531 -1.640625 5.375 -1.640625 L 5.4375 -1.640625 L 5.4375 0.140625 L 5.171875 0.140625 C 4.734375 0.140625 4.296875 0.0703125 3.859375 -0.0625 C 3.429688 -0.195312 3.039062 -0.414062 2.6875 -0.71875 C 2.332031 -1.019531 2.046875 -1.40625 1.828125 -1.875 C 1.609375 -2.34375 1.5 -2.898438 1.5 -3.546875 C 1.5 -4.097656 1.578125 -4.601562 1.734375 -5.0625 C 1.898438 -5.53125 2.117188 -5.953125 2.390625 -6.328125 C 2.671875 -6.703125 2.984375 -7.039062 3.328125 -7.34375 C 3.679688 -7.65625 4.035156 -7.921875 4.390625 -8.140625 C 4.222656 -8.304688 4.03125 -8.507812 3.8125 -8.75 C 3.59375 -8.988281 3.382812 -9.257812 3.1875 -9.5625 C 2.988281 -9.863281 2.820312 -10.203125 2.6875 -10.578125 C 2.5625 -10.953125 2.5 -11.359375 2.5 -11.796875 Z M 2.5 -11.796875 "/></g></g></g><g fill="#ffffff" fill-opacity="1"><g transform="translate(199.152192, 209.87833)"><g><path d="M 8.84375 -12.78125 C 8.769531 -12.800781 8.6875 -12.84375 8.59375 -12.90625 C 8.5 -12.976562 8.363281 -13.046875 8.1875 -13.109375 C 8.007812 -13.171875 7.78125 -13.222656 7.5 -13.265625 C 7.226562 -13.304688 6.878906 -13.316406 6.453125 -13.296875 L 6.453125 -15.359375 C 7.054688 -15.347656 7.671875 -15.28125 8.296875 -15.15625 C 8.921875 -15.039062 9.421875 -14.863281 9.796875 -14.625 C 9.722656 -14.445312 9.628906 -14.25 9.515625 -14.03125 C 9.410156 -13.820312 9.304688 -13.625 9.203125 -13.4375 C 9.109375 -13.257812 9.023438 -13.109375 8.953125 -12.984375 C 8.890625 -12.859375 8.851562 -12.789062 8.84375 -12.78125 Z M 1.765625 -11.140625 C 1.765625 -11.734375 1.863281 -12.269531 2.0625 -12.75 C 2.269531 -13.226562 2.546875 -13.648438 2.890625 -14.015625 C 3.242188 -14.378906 3.65625 -14.664062 4.125 -14.875 C 4.601562 -15.09375 5.101562 -15.234375 5.625 -15.296875 L 5.625 -13.140625 C 5.1875 -12.992188 4.820312 -12.734375 4.53125 -12.359375 C 4.25 -11.984375 4.109375 -11.601562 4.109375 -11.21875 C 4.109375 -10.6875 4.25 -10.253906 4.53125 -9.921875 C 4.820312 -9.597656 5.1875 -9.3125 5.625 -9.0625 L 5.625 -6.734375 C 5.164062 -6.953125 4.710938 -7.1875 4.265625 -7.4375 C 3.816406 -7.6875 3.40625 -7.984375 3.03125 -8.328125 C 2.664062 -8.671875 2.363281 -9.066406 2.125 -9.515625 C 1.882812 -9.960938 1.765625 -10.503906 1.765625 -11.140625 Z M 2.09375 -2.765625 C 2.28125 -2.660156 2.519531 -2.554688 2.8125 -2.453125 C 3.113281 -2.347656 3.421875 -2.25 3.734375 -2.15625 C 4.046875 -2.070312 4.359375 -2 4.671875 -1.9375 C 4.984375 -1.882812 5.28125 -1.859375 5.5625 -1.859375 L 5.625 -1.859375 L 5.625 0.078125 L 5.578125 0.078125 C 5.253906 0.078125 4.914062 0.0625 4.5625 0.03125 C 4.21875 0 3.863281 -0.0546875 3.5 -0.140625 C 3.144531 -0.222656 2.804688 -0.335938 2.484375 -0.484375 C 2.171875 -0.628906 1.894531 -0.800781 1.65625 -1 Z M 6.453125 -8.65625 C 6.910156 -8.445312 7.375 -8.226562 7.84375 -8 C 8.3125 -7.769531 8.738281 -7.484375 9.125 -7.140625 C 9.507812 -6.804688 9.820312 -6.398438 10.0625 -5.921875 C 10.3125 -5.441406 10.4375 -4.847656 10.4375 -4.140625 C 10.4375 -3.648438 10.34375 -3.171875 10.15625 -2.703125 C 9.976562 -2.242188 9.71875 -1.820312 9.375 -1.4375 C 9.039062 -1.0625 8.628906 -0.742188 8.140625 -0.484375 C 7.648438 -0.234375 7.085938 -0.0664062 6.453125 0.015625 L 6.453125 -1.953125 C 7.578125 -2.222656 8.140625 -2.96875 8.140625 -4.1875 C 8.140625 -4.664062 7.984375 -5.0625 7.671875 -5.375 C 7.359375 -5.6875 6.953125 -5.976562 6.453125 -6.25 Z M 6.453125 -8.65625 "/></g></g></g><g fill="#ffffff" fill-opacity="1"><g transform="translate(127.030515, 236.860605)"><g><path d="M 4.90625 -0.703125 L 4.90625 0 L 0.84375 0 L 0.84375 -5.59375 L 4.796875 -5.59375 L 4.796875 -4.90625 L 1.640625 -4.90625 L 1.640625 -3.1875 L 4.453125 -3.1875 L 4.453125 -2.5 L 1.640625 -2.5 L 1.640625 -0.703125 Z M 4.90625 -0.703125 "/></g></g></g><g fill="#ffffff" fill-opacity="1"><g transform="translate(133.99058, 236.860605)"><g><path d="M 6.03125 -4.28125 C 6.5625 -4.28125 6.984375 -4.125 7.296875 -3.8125 C 7.609375 -3.507812 7.765625 -3.050781 7.765625 -2.4375 L 7.765625 0 L 7 0 L 7 -2.359375 C 7 -2.765625 6.90625 -3.070312 6.71875 -3.28125 C 6.53125 -3.488281 6.257812 -3.59375 5.90625 -3.59375 C 5.507812 -3.59375 5.195312 -3.46875 4.96875 -3.21875 C 4.738281 -2.976562 4.625 -2.632812 4.625 -2.1875 L 4.625 0 L 3.859375 0 L 3.859375 -2.359375 C 3.859375 -2.765625 3.765625 -3.070312 3.578125 -3.28125 C 3.390625 -3.488281 3.117188 -3.59375 2.765625 -3.59375 C 2.378906 -3.59375 2.070312 -3.46875 1.84375 -3.21875 C 1.613281 -2.976562 1.5 -2.632812 1.5 -2.1875 L 1.5 0 L 0.734375 0 L 0.734375 -4.234375 L 1.46875 -4.234375 L 1.46875 -3.609375 C 1.625 -3.828125 1.828125 -3.992188 2.078125 -4.109375 C 2.328125 -4.222656 2.609375 -4.28125 2.921875 -4.28125 C 3.253906 -4.28125 3.546875 -4.210938 3.796875 -4.078125 C 4.054688 -3.941406 4.257812 -3.75 4.40625 -3.5 C 4.5625 -3.738281 4.78125 -3.925781 5.0625 -4.0625 C 5.351562 -4.207031 5.675781 -4.28125 6.03125 -4.28125 Z M 6.03125 -4.28125 "/></g></g></g><g fill="#ffffff" fill-opacity="1"><g transform="translate(144.046676, 236.860605)"><g><path d="M 2.96875 -4.28125 C 3.382812 -4.28125 3.753906 -4.1875 4.078125 -4 C 4.398438 -3.820312 4.65625 -3.570312 4.84375 -3.25 C 5.03125 -2.925781 5.125 -2.550781 5.125 -2.125 C 5.125 -1.695312 5.03125 -1.316406 4.84375 -0.984375 C 4.65625 -0.660156 4.398438 -0.40625 4.078125 -0.21875 C 3.753906 -0.0390625 3.382812 0.046875 2.96875 0.046875 C 2.664062 0.046875 2.390625 -0.0078125 2.140625 -0.125 C 1.890625 -0.238281 1.675781 -0.410156 1.5 -0.640625 L 1.5 1.546875 L 0.734375 1.546875 L 0.734375 -4.234375 L 1.46875 -4.234375 L 1.46875 -3.5625 C 1.632812 -3.800781 1.847656 -3.976562 2.109375 -4.09375 C 2.367188 -4.21875 2.65625 -4.28125 2.96875 -4.28125 Z M 2.90625 -0.625 C 3.175781 -0.625 3.421875 -0.6875 3.640625 -0.8125 C 3.859375 -0.9375 4.03125 -1.113281 4.15625 -1.34375 C 4.28125 -1.570312 4.34375 -1.832031 4.34375 -2.125 C 4.34375 -2.414062 4.28125 -2.671875 4.15625 -2.890625 C 4.03125 -3.117188 3.859375 -3.296875 3.640625 -3.421875 C 3.421875 -3.546875 3.175781 -3.609375 2.90625 -3.609375 C 2.644531 -3.609375 2.40625 -3.546875 2.1875 -3.421875 C 1.96875 -3.296875 1.796875 -3.117188 1.671875 -2.890625 C 1.546875 -2.671875 1.484375 -2.414062 1.484375 -2.125 C 1.484375 -1.832031 1.546875 -1.570312 1.671875 -1.34375 C 1.796875 -1.113281 1.96875 -0.9375 2.1875 -0.8125 C 2.40625 -0.6875 2.644531 -0.625 2.90625 -0.625 Z M 2.90625 -0.625 "/></g></g></g><g fill="#ffffff" fill-opacity="1"><g transform="translate(151.102738, 236.860605)"><g><path d="M 1.46875 -3.53125 C 1.59375 -3.769531 1.785156 -3.953125 2.046875 -4.078125 C 2.316406 -4.210938 2.640625 -4.28125 3.015625 -4.28125 L 3.015625 -3.53125 C 2.960938 -3.539062 2.898438 -3.546875 2.828125 -3.546875 C 2.410156 -3.546875 2.082031 -3.421875 1.84375 -3.171875 C 1.613281 -2.921875 1.5 -2.566406 1.5 -2.109375 L 1.5 0 L 0.734375 0 L 0.734375 -4.234375 L 1.46875 -4.234375 Z M 1.46875 -3.53125 "/></g></g></g><g fill="#ffffff" fill-opacity="1"><g transform="translate(155.982778, 236.860605)"><g><path d="M 4.5625 -2.09375 C 4.5625 -2.039062 4.554688 -1.960938 4.546875 -1.859375 L 1.109375 -1.859375 C 1.148438 -1.484375 1.3125 -1.179688 1.59375 -0.953125 C 1.875 -0.734375 2.222656 -0.625 2.640625 -0.625 C 3.148438 -0.625 3.554688 -0.796875 3.859375 -1.140625 L 4.28125 -0.640625 C 4.09375 -0.410156 3.851562 -0.238281 3.5625 -0.125 C 3.28125 -0.0078125 2.960938 0.046875 2.609375 0.046875 C 2.160156 0.046875 1.765625 -0.0390625 1.421875 -0.21875 C 1.078125 -0.40625 0.8125 -0.664062 0.625 -1 C 0.4375 -1.332031 0.34375 -1.707031 0.34375 -2.125 C 0.34375 -2.53125 0.429688 -2.898438 0.609375 -3.234375 C 0.796875 -3.566406 1.050781 -3.820312 1.375 -4 C 1.695312 -4.1875 2.0625 -4.28125 2.46875 -4.28125 C 2.875 -4.28125 3.234375 -4.1875 3.546875 -4 C 3.867188 -3.820312 4.117188 -3.566406 4.296875 -3.234375 C 4.472656 -2.898438 4.5625 -2.519531 4.5625 -2.09375 Z M 2.46875 -3.625 C 2.09375 -3.625 1.78125 -3.507812 1.53125 -3.28125 C 1.289062 -3.0625 1.148438 -2.773438 1.109375 -2.421875 L 3.828125 -2.421875 C 3.785156 -2.773438 3.640625 -3.0625 3.390625 -3.28125 C 3.140625 -3.507812 2.832031 -3.625 2.46875 -3.625 Z M 2.46875 -3.625 "/></g></g></g><g fill="#ffffff" fill-opacity="1"><g transform="translate(162.478842, 236.860605)"><g><path d="M 1.9375 0.046875 C 1.59375 0.046875 1.257812 0 0.9375 -0.09375 C 0.625 -0.1875 0.375 -0.304688 0.1875 -0.453125 L 0.515625 -1.0625 C 0.703125 -0.925781 0.925781 -0.816406 1.1875 -0.734375 C 1.457031 -0.648438 1.726562 -0.609375 2 -0.609375 C 2.675781 -0.609375 3.015625 -0.800781 3.015625 -1.1875 C 3.015625 -1.320312 2.96875 -1.425781 2.875 -1.5 C 2.78125 -1.570312 2.664062 -1.625 2.53125 -1.65625 C 2.394531 -1.695312 2.203125 -1.738281 1.953125 -1.78125 C 1.609375 -1.832031 1.328125 -1.890625 1.109375 -1.953125 C 0.898438 -2.023438 0.71875 -2.144531 0.5625 -2.3125 C 0.40625 -2.476562 0.328125 -2.710938 0.328125 -3.015625 C 0.328125 -3.390625 0.484375 -3.691406 0.796875 -3.921875 C 1.117188 -4.160156 1.550781 -4.28125 2.09375 -4.28125 C 2.375 -4.28125 2.65625 -4.242188 2.9375 -4.171875 C 3.226562 -4.109375 3.460938 -4.015625 3.640625 -3.890625 L 3.3125 -3.28125 C 2.96875 -3.507812 2.5625 -3.625 2.09375 -3.625 C 1.757812 -3.625 1.507812 -3.566406 1.34375 -3.453125 C 1.175781 -3.347656 1.09375 -3.210938 1.09375 -3.046875 C 1.09375 -2.898438 1.140625 -2.785156 1.234375 -2.703125 C 1.328125 -2.628906 1.441406 -2.570312 1.578125 -2.53125 C 1.722656 -2.5 1.925781 -2.457031 2.1875 -2.40625 C 2.53125 -2.34375 2.804688 -2.28125 3.015625 -2.21875 C 3.222656 -2.15625 3.398438 -2.039062 3.546875 -1.875 C 3.703125 -1.71875 3.78125 -1.492188 3.78125 -1.203125 C 3.78125 -0.816406 3.613281 -0.507812 3.28125 -0.28125 C 2.957031 -0.0625 2.507812 0.046875 1.9375 0.046875 Z M 1.9375 0.046875 "/></g></g></g><g fill="#ffffff" fill-opacity="1"><g transform="translate(168.086893, 236.860605)"><g><path d="M 2.265625 -4.28125 C 2.859375 -4.28125 3.3125 -4.132812 3.625 -3.84375 C 3.9375 -3.5625 4.09375 -3.132812 4.09375 -2.5625 L 4.09375 0 L 3.359375 0 L 3.359375 -0.5625 C 3.234375 -0.363281 3.050781 -0.210938 2.8125 -0.109375 C 2.570312 -0.00390625 2.289062 0.046875 1.96875 0.046875 C 1.488281 0.046875 1.109375 -0.0664062 0.828125 -0.296875 C 0.546875 -0.523438 0.40625 -0.828125 0.40625 -1.203125 C 0.40625 -1.578125 0.539062 -1.875 0.8125 -2.09375 C 1.082031 -2.320312 1.515625 -2.4375 2.109375 -2.4375 L 3.3125 -2.4375 L 3.3125 -2.59375 C 3.3125 -2.925781 3.21875 -3.175781 3.03125 -3.34375 C 2.84375 -3.519531 2.5625 -3.609375 2.1875 -3.609375 C 1.9375 -3.609375 1.691406 -3.566406 1.453125 -3.484375 C 1.210938 -3.410156 1.007812 -3.300781 0.84375 -3.15625 L 0.515625 -3.734375 C 0.734375 -3.910156 0.992188 -4.046875 1.296875 -4.140625 C 1.609375 -4.234375 1.929688 -4.28125 2.265625 -4.28125 Z M 2.09375 -0.546875 C 2.382812 -0.546875 2.632812 -0.609375 2.84375 -0.734375 C 3.0625 -0.867188 3.21875 -1.054688 3.3125 -1.296875 L 3.3125 -1.890625 L 2.140625 -1.890625 C 1.484375 -1.890625 1.15625 -1.671875 1.15625 -1.234375 C 1.15625 -1.015625 1.238281 -0.84375 1.40625 -0.71875 C 1.570312 -0.601562 1.800781 -0.546875 2.09375 -0.546875 Z M 2.09375 -0.546875 "/></g></g></g><g fill="#ffffff" fill-opacity="1"><g transform="translate(174.470957, 236.860605)"><g/></g></g><g fill="#ffffff" fill-opacity="1"><g transform="translate(178.222992, 236.860605)"><g><path d="M 2.578125 0.046875 C 2.140625 0.046875 1.75 -0.046875 1.40625 -0.234375 C 1.070312 -0.421875 0.8125 -0.675781 0.625 -1 C 0.4375 -1.332031 0.34375 -1.707031 0.34375 -2.125 C 0.34375 -2.539062 0.4375 -2.910156 0.625 -3.234375 C 0.8125 -3.566406 1.070312 -3.820312 1.40625 -4 C 1.75 -4.1875 2.140625 -4.28125 2.578125 -4.28125 C 2.960938 -4.28125 3.304688 -4.203125 3.609375 -4.046875 C 3.910156 -3.890625 4.140625 -3.664062 4.296875 -3.375 L 3.71875 -3 C 3.582031 -3.195312 3.414062 -3.347656 3.21875 -3.453125 C 3.019531 -3.554688 2.800781 -3.609375 2.5625 -3.609375 C 2.289062 -3.609375 2.039062 -3.546875 1.8125 -3.421875 C 1.59375 -3.296875 1.421875 -3.117188 1.296875 -2.890625 C 1.171875 -2.671875 1.109375 -2.414062 1.109375 -2.125 C 1.109375 -1.820312 1.171875 -1.554688 1.296875 -1.328125 C 1.421875 -1.097656 1.59375 -0.921875 1.8125 -0.796875 C 2.039062 -0.679688 2.289062 -0.625 2.5625 -0.625 C 2.800781 -0.625 3.019531 -0.671875 3.21875 -0.765625 C 3.414062 -0.867188 3.582031 -1.023438 3.71875 -1.234375 L 4.296875 -0.859375 C 4.140625 -0.566406 3.910156 -0.34375 3.609375 -0.1875 C 3.304688 -0.03125 2.960938 0.046875 2.578125 0.046875 Z M 2.578125 0.046875 "/></g></g></g><g fill="#ffffff" fill-opacity="1"><g transform="translate(184.391052, 236.860605)"><g><path d="M 2.546875 0.046875 C 2.117188 0.046875 1.738281 -0.046875 1.40625 -0.234375 C 1.070312 -0.421875 0.8125 -0.675781 0.625 -1 C 0.4375 -1.332031 0.34375 -1.707031 0.34375 -2.125 C 0.34375 -2.539062 0.4375 -2.910156 0.625 -3.234375 C 0.8125 -3.566406 1.070312 -3.820312 1.40625 -4 C 1.738281 -4.1875 2.117188 -4.28125 2.546875 -4.28125 C 2.960938 -4.28125 3.335938 -4.1875 3.671875 -4 C 4.003906 -3.820312 4.265625 -3.566406 4.453125 -3.234375 C 4.648438 -2.910156 4.75 -2.539062 4.75 -2.125 C 4.75 -1.707031 4.648438 -1.332031 4.453125 -1 C 4.265625 -0.675781 4.003906 -0.421875 3.671875 -0.234375 C 3.335938 -0.046875 2.960938 0.046875 2.546875 0.046875 Z M 2.546875 -0.625 C 2.816406 -0.625 3.054688 -0.6875 3.265625 -0.8125 C 3.484375 -0.9375 3.65625 -1.113281 3.78125 -1.34375 C 3.90625 -1.570312 3.96875 -1.832031 3.96875 -2.125 C 3.96875 -2.414062 3.90625 -2.671875 3.78125 -2.890625 C 3.65625 -3.117188 3.484375 -3.296875 3.265625 -3.421875 C 3.054688 -3.546875 2.816406 -3.609375 2.546875 -3.609375 C 2.273438 -3.609375 2.03125 -3.546875 1.8125 -3.421875 C 1.59375 -3.296875 1.421875 -3.117188 1.296875 -2.890625 C 1.171875 -2.671875 1.109375 -2.414062 1.109375 -2.125 C 1.109375 -1.832031 1.171875 -1.570312 1.296875 -1.34375 C 1.421875 -1.113281 1.59375 -0.9375 1.8125 -0.8125 C 2.03125 -0.6875 2.273438 -0.625 2.546875 -0.625 Z M 2.546875 -0.625 "/></g></g></g><g fill="#ffffff" fill-opacity="1"><g transform="translate(191.071118, 236.860605)"><g><path d="M 2.984375 -4.28125 C 3.523438 -4.28125 3.953125 -4.125 4.265625 -3.8125 C 4.585938 -3.5 4.75 -3.039062 4.75 -2.4375 L 4.75 0 L 3.984375 0 L 3.984375 -2.359375 C 3.984375 -2.765625 3.882812 -3.070312 3.6875 -3.28125 C 3.488281 -3.488281 3.207031 -3.59375 2.84375 -3.59375 C 2.425781 -3.59375 2.097656 -3.46875 1.859375 -3.21875 C 1.617188 -2.976562 1.5 -2.632812 1.5 -2.1875 L 1.5 0 L 0.734375 0 L 0.734375 -4.234375 L 1.46875 -4.234375 L 1.46875 -3.59375 C 1.625 -3.8125 1.832031 -3.976562 2.09375 -4.09375 C 2.351562 -4.21875 2.648438 -4.28125 2.984375 -4.28125 Z M 2.984375 -4.28125 "/></g></g></g><g fill="#ffffff" fill-opacity="1"><g transform="translate(198.119187, 236.860605)"><g><path d="M 1.9375 0.046875 C 1.59375 0.046875 1.257812 0 0.9375 -0.09375 C 0.625 -0.1875 0.375 -0.304688 0.1875 -0.453125 L 0.515625 -1.0625 C 0.703125 -0.925781 0.925781 -0.816406 1.1875 -0.734375 C 1.457031 -0.648438 1.726562 -0.609375 2 -0.609375 C 2.675781 -0.609375 3.015625 -0.800781 3.015625 -1.1875 C 3.015625 -1.320312 2.96875 -1.425781 2.875 -1.5 C 2.78125 -1.570312 2.664062 -1.625 2.53125 -1.65625 C 2.394531 -1.695312 2.203125 -1.738281 1.953125 -1.78125 C 1.609375 -1.832031 1.328125 -1.890625 1.109375 -1.953125 C 0.898438 -2.023438 0.71875 -2.144531 0.5625 -2.3125 C 0.40625 -2.476562 0.328125 -2.710938 0.328125 -3.015625 C 0.328125 -3.390625 0.484375 -3.691406 0.796875 -3.921875 C 1.117188 -4.160156 1.550781 -4.28125 2.09375 -4.28125 C 2.375 -4.28125 2.65625 -4.242188 2.9375 -4.171875 C 3.226562 -4.109375 3.460938 -4.015625 3.640625 -3.890625 L 3.3125 -3.28125 C 2.96875 -3.507812 2.5625 -3.625 2.09375 -3.625 C 1.757812 -3.625 1.507812 -3.566406 1.34375 -3.453125 C 1.175781 -3.347656 1.09375 -3.210938 1.09375 -3.046875 C 1.09375 -2.898438 1.140625 -2.785156 1.234375 -2.703125 C 1.328125 -2.628906 1.441406 -2.570312 1.578125 -2.53125 C 1.722656 -2.5 1.925781 -2.457031 2.1875 -2.40625 C 2.53125 -2.34375 2.804688 -2.28125 3.015625 -2.21875 C 3.222656 -2.15625 3.398438 -2.039062 3.546875 -1.875 C 3.703125 -1.71875 3.78125 -1.492188 3.78125 -1.203125 C 3.78125 -0.816406 3.613281 -0.507812 3.28125 -0.28125 C 2.957031 -0.0625 2.507812 0.046875 1.9375 0.046875 Z M 1.9375 0.046875 "/></g></g></g><g fill="#ffffff" fill-opacity="1"><g transform="translate(203.727237, 236.860605)"><g><path d="M 3.109375 -0.25 C 2.992188 -0.15625 2.851562 -0.0820312 2.6875 -0.03125 C 2.53125 0.0195312 2.363281 0.046875 2.1875 0.046875 C 1.757812 0.046875 1.425781 -0.0664062 1.1875 -0.296875 C 0.957031 -0.523438 0.84375 -0.851562 0.84375 -1.28125 L 0.84375 -3.609375 L 0.125 -3.609375 L 0.125 -4.234375 L 0.84375 -4.234375 L 0.84375 -5.171875 L 1.609375 -5.171875 L 1.609375 -4.234375 L 2.828125 -4.234375 L 2.828125 -3.609375 L 1.609375 -3.609375 L 1.609375 -1.3125 C 1.609375 -1.082031 1.664062 -0.90625 1.78125 -0.78125 C 1.894531 -0.65625 2.054688 -0.59375 2.265625 -0.59375 C 2.503906 -0.59375 2.707031 -0.660156 2.875 -0.796875 Z M 3.109375 -0.25 "/></g></g></g><g fill="#ffffff" fill-opacity="1"><g transform="translate(208.63928, 236.860605)"><g><path d="M 1.46875 -3.53125 C 1.59375 -3.769531 1.785156 -3.953125 2.046875 -4.078125 C 2.316406 -4.210938 2.640625 -4.28125 3.015625 -4.28125 L 3.015625 -3.53125 C 2.960938 -3.539062 2.898438 -3.546875 2.828125 -3.546875 C 2.410156 -3.546875 2.082031 -3.421875 1.84375 -3.171875 C 1.613281 -2.921875 1.5 -2.566406 1.5 -2.109375 L 1.5 0 L 0.734375 0 L 0.734375 -4.234375 L 1.46875 -4.234375 Z M 1.46875 -3.53125 "/></g></g></g><g fill="#ffffff" fill-opacity="1"><g transform="translate(213.519315, 236.860605)"><g><path d="M 4.6875 -4.234375 L 4.6875 0 L 3.953125 0 L 3.953125 -0.640625 C 3.796875 -0.421875 3.585938 -0.25 3.328125 -0.125 C 3.078125 -0.0078125 2.804688 0.046875 2.515625 0.046875 C 1.941406 0.046875 1.492188 -0.109375 1.171875 -0.421875 C 0.847656 -0.734375 0.6875 -1.191406 0.6875 -1.796875 L 0.6875 -4.234375 L 1.453125 -4.234375 L 1.453125 -1.890625 C 1.453125 -1.472656 1.550781 -1.160156 1.75 -0.953125 C 1.945312 -0.742188 2.226562 -0.640625 2.59375 -0.640625 C 3 -0.640625 3.316406 -0.757812 3.546875 -1 C 3.785156 -1.25 3.90625 -1.597656 3.90625 -2.046875 L 3.90625 -4.234375 Z M 4.6875 -4.234375 "/></g></g></g><g fill="#ffffff" fill-opacity="1"><g transform="translate(220.535376, 236.860605)"><g><path d="M 2.578125 0.046875 C 2.140625 0.046875 1.75 -0.046875 1.40625 -0.234375 C 1.070312 -0.421875 0.8125 -0.675781 0.625 -1 C 0.4375 -1.332031 0.34375 -1.707031 0.34375 -2.125 C 0.34375 -2.539062 0.4375 -2.910156 0.625 -3.234375 C 0.8125 -3.566406 1.070312 -3.820312 1.40625 -4 C 1.75 -4.1875 2.140625 -4.28125 2.578125 -4.28125 C 2.960938 -4.28125 3.304688 -4.203125 3.609375 -4.046875 C 3.910156 -3.890625 4.140625 -3.664062 4.296875 -3.375 L 3.71875 -3 C 3.582031 -3.195312 3.414062 -3.347656 3.21875 -3.453125 C 3.019531 -3.554688 2.800781 -3.609375 2.5625 -3.609375 C 2.289062 -3.609375 2.039062 -3.546875 1.8125 -3.421875 C 1.59375 -3.296875 1.421875 -3.117188 1.296875 -2.890625 C 1.171875 -2.671875 1.109375 -2.414062 1.109375 -2.125 C 1.109375 -1.820312 1.171875 -1.554688 1.296875 -1.328125 C 1.421875 -1.097656 1.59375 -0.921875 1.8125 -0.796875 C 2.039062 -0.679688 2.289062 -0.625 2.5625 -0.625 C 2.800781 -0.625 3.019531 -0.671875 3.21875 -0.765625 C 3.414062 -0.867188 3.582031 -1.023438 3.71875 -1.234375 L 4.296875 -0.859375 C 4.140625 -0.566406 3.910156 -0.34375 3.609375 -0.1875 C 3.304688 -0.03125 2.960938 0.046875 2.578125 0.046875 Z M 2.578125 0.046875 "/></g></g></g><g fill="#ffffff" fill-opacity="1"><g transform="translate(226.703431, 236.860605)"><g><path d="M 3.109375 -0.25 C 2.992188 -0.15625 2.851562 -0.0820312 2.6875 -0.03125 C 2.53125 0.0195312 2.363281 0.046875 2.1875 0.046875 C 1.757812 0.046875 1.425781 -0.0664062 1.1875 -0.296875 C 0.957031 -0.523438 0.84375 -0.851562 0.84375 -1.28125 L 0.84375 -3.609375 L 0.125 -3.609375 L 0.125 -4.234375 L 0.84375 -4.234375 L 0.84375 -5.171875 L 1.609375 -5.171875 L 1.609375 -4.234375 L 2.828125 -4.234375 L 2.828125 -3.609375 L 1.609375 -3.609375 L 1.609375 -1.3125 C 1.609375 -1.082031 1.664062 -0.90625 1.78125 -0.78125 C 1.894531 -0.65625 2.054688 -0.59375 2.265625 -0.59375 C 2.503906 -0.59375 2.707031 -0.660156 2.875 -0.796875 Z M 3.109375 -0.25 "/></g></g></g><g fill="#ffffff" fill-opacity="1"><g transform="translate(231.615469, 236.860605)"><g><path d="M 2.546875 0.046875 C 2.117188 0.046875 1.738281 -0.046875 1.40625 -0.234375 C 1.070312 -0.421875 0.8125 -0.675781 0.625 -1 C 0.4375 -1.332031 0.34375 -1.707031 0.34375 -2.125 C 0.34375 -2.539062 0.4375 -2.910156 0.625 -3.234375 C 0.8125 -3.566406 1.070312 -3.820312 1.40625 -4 C 1.738281 -4.1875 2.117188 -4.28125 2.546875 -4.28125 C 2.960938 -4.28125 3.335938 -4.1875 3.671875 -4 C 4.003906 -3.820312 4.265625 -3.566406 4.453125 -3.234375 C 4.648438 -2.910156 4.75 -2.539062 4.75 -2.125 C 4.75 -1.707031 4.648438 -1.332031 4.453125 -1 C 4.265625 -0.675781 4.003906 -0.421875 3.671875 -0.234375 C 3.335938 -0.046875 2.960938 0.046875 2.546875 0.046875 Z M 2.546875 -0.625 C 2.816406 -0.625 3.054688 -0.6875 3.265625 -0.8125 C 3.484375 -0.9375 3.65625 -1.113281 3.78125 -1.34375 C 3.90625 -1.570312 3.96875 -1.832031 3.96875 -2.125 C 3.96875 -2.414062 3.90625 -2.671875 3.78125 -2.890625 C 3.65625 -3.117188 3.484375 -3.296875 3.265625 -3.421875 C 3.054688 -3.546875 2.816406 -3.609375 2.546875 -3.609375 C 2.273438 -3.609375 2.03125 -3.546875 1.8125 -3.421875 C 1.59375 -3.296875 1.421875 -3.117188 1.296875 -2.890625 C 1.171875 -2.671875 1.109375 -2.414062 1.109375 -2.125 C 1.109375 -1.832031 1.171875 -1.570312 1.296875 -1.34375 C 1.421875 -1.113281 1.59375 -0.9375 1.8125 -0.8125 C 2.03125 -0.6875 2.273438 -0.625 2.546875 -0.625 Z M 2.546875 -0.625 "/></g></g></g><g fill="#ffffff" fill-opacity="1"><g transform="translate(238.29553, 236.860605)"><g><path d="M 1.46875 -3.53125 C 1.59375 -3.769531 1.785156 -3.953125 2.046875 -4.078125 C 2.316406 -4.210938 2.640625 -4.28125 3.015625 -4.28125 L 3.015625 -3.53125 C 2.960938 -3.539062 2.898438 -3.546875 2.828125 -3.546875 C 2.410156 -3.546875 2.082031 -3.421875 1.84375 -3.171875 C 1.613281 -2.921875 1.5 -2.566406 1.5 -2.109375 L 1.5 0 L 0.734375 0 L 0.734375 -4.234375 L 1.46875 -4.234375 Z M 1.46875 -3.53125 "/></g></g></g><g fill="#ffffff" fill-opacity="1"><g transform="translate(243.175565, 236.860605)"><g><path d="M 2.265625 -4.28125 C 2.859375 -4.28125 3.3125 -4.132812 3.625 -3.84375 C 3.9375 -3.5625 4.09375 -3.132812 4.09375 -2.5625 L 4.09375 0 L 3.359375 0 L 3.359375 -0.5625 C 3.234375 -0.363281 3.050781 -0.210938 2.8125 -0.109375 C 2.570312 -0.00390625 2.289062 0.046875 1.96875 0.046875 C 1.488281 0.046875 1.109375 -0.0664062 0.828125 -0.296875 C 0.546875 -0.523438 0.40625 -0.828125 0.40625 -1.203125 C 0.40625 -1.578125 0.539062 -1.875 0.8125 -2.09375 C 1.082031 -2.320312 1.515625 -2.4375 2.109375 -2.4375 L 3.3125 -2.4375 L 3.3125 -2.59375 C 3.3125 -2.925781 3.21875 -3.175781 3.03125 -3.34375 C 2.84375 -3.519531 2.5625 -3.609375 2.1875 -3.609375 C 1.9375 -3.609375 1.691406 -3.566406 1.453125 -3.484375 C 1.210938 -3.410156 1.007812 -3.300781 0.84375 -3.15625 L 0.515625 -3.734375 C 0.734375 -3.910156 0.992188 -4.046875 1.296875 -4.140625 C 1.609375 -4.234375 1.929688 -4.28125 2.265625 -4.28125 Z M 2.09375 -0.546875 C 2.382812 -0.546875 2.632812 -0.609375 2.84375 -0.734375 C 3.0625 -0.867188 3.21875 -1.054688 3.3125 -1.296875 L 3.3125 -1.890625 L 2.140625 -1.890625 C 1.484375 -1.890625 1.15625 -1.671875 1.15625 -1.234375 C 1.15625 -1.015625 1.238281 -0.84375 1.40625 -0.71875 C 1.570312 -0.601562 1.800781 -0.546875 2.09375 -0.546875 Z M 2.09375 -0.546875 "/></g></g></g><path stroke-linecap="round" transform="matrix(0.646471, -0.483229, 0.483229, 0.646471, 123.206833, 176.767313)" fill="none" stroke-linejoin="miter" d="M 0.502689 0.500033 L 198.277236 0.500053 " stroke="#ab7339" stroke-width="1" stroke-opacity="1" stroke-miterlimit="4"/><path stroke-linecap="round" transform="matrix(0.623048, -0.513075, 0.513075, 0.623048, 122.882384, 176.881613)" fill="none" stroke-linejoin="miter" d="M 0.498117 0.499895 L 206.245385 0.501945 " stroke="#ab7339" stroke-width="1" stroke-opacity="1" stroke-miterlimit="4"/><path stroke-linecap="round" transform="matrix(0.668966, -0.451573, 0.451573, 0.668966, 123.067892, 177.087132)" fill="none" stroke-linejoin="miter" d="M 0.501122 0.499985 L 191.822484 0.501574 " stroke="#ab7339" stroke-width="1" stroke-opacity="1" stroke-miterlimit="4"/><path stroke-linecap="round" transform="matrix(0.69176, -0.415815, 0.415815, 0.69176, 123.507433, 176.849652)" fill="none" stroke-linejoin="miter" d="M 0.500939 0.501514 L 184.876923 0.499151 " stroke="#ab7339" stroke-width="1" stroke-opacity="1" stroke-miterlimit="4"/><path stroke-linecap="round" transform="matrix(0.714386, -0.375615, 0.375615, 0.714386, 123.319772, 176.827692)" fill="none" stroke-linejoin="miter" d="M 0.498932 0.49806 L 179.294833 0.500989 " stroke="#ab7339" stroke-width="1" stroke-opacity="1" stroke-miterlimit="4"/><path stroke-linecap="round" transform="matrix(0.735439, -0.332511, 0.332511, 0.735439, 123.111193, 176.995448)" fill="none" stroke-linejoin="miter" d="M 0.500097 0.497869 L 174.465144 0.499935 " stroke="#ab7339" stroke-width="1" stroke-opacity="1" stroke-miterlimit="4"/><path stroke-linecap="round" transform="matrix(0.75596, -0.282771, 0.282771, 0.75596, 123.366148, 176.773493)" fill="none" stroke-linejoin="miter" d="M 0.500691 0.502416 L 169.409997 0.49847 " stroke="#ab7339" stroke-width="1" stroke-opacity="1" stroke-miterlimit="4"/><path stroke-linecap="round" transform="matrix(0.772942, -0.232369, 0.232369, 0.772942, 123.596802, 176.809164)" fill="none" stroke-linejoin="miter" d="M 0.498336 0.497784 L 165.411926 0.498357 " stroke="#ab7339" stroke-width="1" stroke-opacity="1" stroke-miterlimit="4"/><path stroke-linecap="round" transform="matrix(0.787684, -0.176035, 0.176035, 0.787684, 123.740123, 176.802058)" fill="none" stroke-linejoin="miter" d="M 0.500412 0.501987 L 162.159974 0.49791 " stroke="#ab7339" stroke-width="1" stroke-opacity="1" stroke-miterlimit="4"/><path stroke-linecap="round" transform="matrix(0.798655, -0.116555, 0.116555, 0.798655, 123.449308, 176.870247)" fill="none" stroke-linejoin="miter" d="M 0.499252 0.499441 L 160.328585 0.499397 " stroke="#ab7339" stroke-width="1" stroke-opacity="1" stroke-miterlimit="4"/><path stroke-linecap="round" transform="matrix(0.804981, -0.0586544, 0.0586544, 0.804981, 122.790486, 177.068895)" fill="none" stroke-linejoin="miter" d="M 0.500494 0.499226 L 159.918222 0.497965 " stroke="#ab7339" stroke-width="1" stroke-opacity="1" stroke-miterlimit="4"/><path stroke-linecap="round" transform="matrix(0.807115, 0, 0, 0.807115, 122.81457, 177.196234)" fill="none" stroke-linejoin="miter" d="M 0.500771 0.502194 L 159.501728 0.502194 " stroke="#ab7339" stroke-width="1" stroke-opacity="1" stroke-miterlimit="4"/></svg>